# xmcd
#
# Track frame offsets:
#	150
#	14632
#	26170
#	40089
#	54092
#	69395
#	81967
#	95885
#	110595
#	123412
#	138069
#	152140
#	167186
#	179726
#	194743
#	209730
#	225006
#	239324
#	252364
#	264747
#	278950
#	291548
#	306487
#	320531
#	331931
#
# Disc length: 4613 seconds
#
# Revision: 0
# Processed by: cddbd v1.4PL0 Copyright (c) Steve Scherf et al.
# Submitted via: audiograbber 1.80.04
#
DISCID=81120319
DTITLE=Frank Sinatra - All Or Nothing At All - Mam'selle
DYEAR=1900
DGENRE=Blues
TTITLE0=Sweet Lorraine
TTITLE1=You Can Take My Word For It, Baby
TTITLE2=Always
TTITLE3=I Concentrate On You
TTITLE4=Mam'selle
TTITLE5=Almost Like Being In Love
TTITLE6=One For My Baby (And One More For The Road)
TTITLE7=But Beautiful
TTITLE8=All Of Me
TTITLE9=Laura
TTITLE10=What'll I Do?
TTITLE11=Mean To Me
TTITLE12=Spring Is Here
TTITLE13=It Never Entered My Mind
TTITLE14=Autumn In New York
TTITLE15=A Little Learnin' Is A Dangerous Thing (Part 1)
TTITLE16=A Little Learnin' Is A Dangerous Thing (Part 2)
TTITLE17=For Every Man There's A Woman
TTITLE18=Why Was I Born?
TTITLE19=Bop! Goes My Heart
TTITLE20=It All Depends On You
TTITLE21=Don't Cry, Joe
TTITLE22=When The Sun Goes Down
TTITLE23=When You're Smiling
TTITLE24=Nevertheless
EXTD=
EXTT0=
EXTT1=
EXTT2=
EXTT3=
EXTT4=
EXTT5=
EXTT6=
EXTT7=
EXTT8=
EXTT9=
EXTT10=
EXTT11=
EXTT12=
EXTT13=
EXTT14=
EXTT15=
EXTT16=
EXTT17=
EXTT18=
EXTT19=
EXTT20=
EXTT21=
EXTT22=
EXTT23=
EXTT24=
PLAYORDER=
